<svg version="1.1" id="Layer_1" xmlns="http://www.w3.org/2000/svg" xmlns:xlink="http://www.w3.org/1999/xlink" x="0px" y="0px"
	 width="100%" viewBox="0 0 89 3530" enable-background="new 0 0 89 3530" xml:space="preserve">
<path fill="#FFFFFF" opacity="1.000000" stroke="none" 
	d="
M1.000000,3172.000000 
	C1.000000,2114.666748 1.000000,1057.833374 1.000000,1.000000 
	C30.666666,1.000000 60.333332,1.000000 90.000000,1.000000 
	C90.000000,1177.666626 90.000000,2354.333252 90.000000,3531.000000 
	C60.333332,3531.000000 30.666668,3531.000000 1.000000,3531.000000 
	C1.000000,3411.500000 1.000000,3292.000000 1.000000,3172.000000 
M84.000000,2937.500000 
	C84.000000,1960.788818 84.000000,984.077576 84.000000,7.293752 
	C58.085121,7.293752 32.691109,7.293752 6.914624,7.293752 
	C6.914624,1179.944214 6.914624,2352.301025 6.914624,3524.694092 
	C32.939304,3524.694092 58.333443,3524.694092 84.000000,3524.694092 
	C84.000000,3329.092285 84.000000,3133.796143 84.000000,2937.500000 
z"/>
<path fill="#F05001" opacity="1.000000" stroke="none" 
	d="
M84.000000,2938.000000 
	C84.000000,3133.796143 84.000000,3329.092285 84.000000,3524.694092 
	C58.333443,3524.694092 32.939304,3524.694092 6.914624,3524.694092 
	C6.914624,2352.301025 6.914624,1179.944214 6.914624,7.293752 
	C32.691109,7.293752 58.085121,7.293752 84.000000,7.293752 
	C84.000000,984.077576 84.000000,1960.788818 84.000000,2938.000000 
z"/>
</svg>